<svg width="24" height="24" viewBox="0 0 24 24" fill="none" xmlns="http://www.w3.org/2000/svg">
<path d="M8.24569 18.5004V5.64844H11.6297C13.2017 5.64844 14.3657 5.96644 15.1217 6.60244C15.8897 7.23844 16.2737 8.16244 16.2737 9.37444C16.2737 10.1904 16.0877 10.8924 15.7157 11.4804C15.3437 12.0564 14.7917 12.5004 14.0597 12.8124C13.3397 13.1244 12.4457 13.2804 11.3777 13.2804H9.86569V18.5004H8.24569ZM6.67969 16.0524V14.8824H12.8357V16.0524H6.67969ZM6.67969 13.2804V11.9124H10.8017V13.2804H6.67969ZM11.1437 11.9124C11.8757 11.9124 12.4937 11.8344 12.9977 11.6784C13.5137 11.5224 13.9097 11.2644 14.1857 10.9044C14.4617 10.5444 14.5997 10.0524 14.5997 9.42844C14.5997 8.61244 14.3477 8.00644 13.8437 7.61044C13.3397 7.21444 12.5537 7.01644 11.4857 7.01644H9.86569V11.9124H11.1437Z" fill="#303233"/>
</svg>
