<svg width="46" height="46" viewBox="0 0 46 46" fill="none" xmlns="http://www.w3.org/2000/svg">
<g id="hh-logo">
<path id="Shape" d="M23 46C35.7027 46 46 35.7027 46 23C46 10.2973 35.7027 0 23 0C10.2973 0 0 10.2973 0 23C0 35.7027 10.2973 46 23 46Z" fill="#959799"/>
<path id="Shape_2" fill-rule="evenodd" clip-rule="evenodd" d="M12.9406 19.7726V11.9609H9.19971V32.2009H12.9367L12.9406 25.0687C12.9367 23.8717 13.0511 22.9675 13.2797 22.3551C13.5045 21.7437 13.8591 21.2863 14.3533 20.9801C14.8368 20.6758 15.3929 20.5227 16.013 20.5227C16.5546 20.5227 17.0032 20.6414 17.3636 20.8815C17.7164 21.1074 17.9811 21.4447 18.1145 21.8384C18.257 22.2403 18.3248 23.1856 18.3248 24.6783V32.2009H22.0667V23.8487C22.0667 22.5704 22.0027 21.6279 21.8748 21.0222C21.746 20.4136 21.5076 19.8616 21.1549 19.3573C20.8042 18.8578 20.2849 18.4464 19.5902 18.1258C18.8974 17.8034 18.1252 17.6407 17.2629 17.6407C15.5886 17.6407 14.145 18.3545 12.9406 19.7726ZM27.6748 19.7726V11.961H23.9377V32.201H27.6748V25.0687C27.6748 23.8717 27.7891 22.9675 28.0139 22.3551C28.2416 21.7437 28.5981 21.2863 29.0855 20.9801C29.5699 20.6759 30.1261 20.5228 30.7452 20.5228C31.2868 20.5228 31.7393 20.6414 32.0958 20.8816C32.4497 21.1067 32.7152 21.4442 32.8487 21.8384C32.9911 22.2403 33.0618 23.1856 33.0618 24.6783V32.201H36.7998V23.8487C36.7998 22.5704 36.7359 21.6279 36.607 21.0222C36.4841 20.4247 36.2391 19.8582 35.8871 19.3573C35.5383 18.8579 35.019 18.4464 34.3272 18.1259C33.6335 17.8034 32.8554 17.6408 31.996 17.6408C30.3227 17.6408 28.8801 18.3546 27.6748 19.7726Z" fill="white"/>
</g>
</svg>
