<svg width="46" height="46" viewBox="0 0 46 46" fill="none" xmlns="http://www.w3.org/2000/svg">
<g id="hh-logo">
<path id="Shape" d="M23 46C35.7027 46 46 35.7027 46 23C46 10.2973 35.7027 0 23 0C10.2973 0 0 10.2973 0 23C0 35.7027 10.2973 46 23 46Z" fill="#C52929"/>
<path id="Shape_2" fill-rule="evenodd" clip-rule="evenodd" d="M12.9401 19.7706V11.959H9.19922V32.199H12.9363L12.9401 25.0667C12.9363 23.8697 13.0506 22.9655 13.2792 22.3531C13.504 21.7417 13.8586 21.2843 14.3528 20.9781C14.8363 20.6739 15.3924 20.5208 16.0125 20.5208C16.5541 20.5208 17.0027 20.6394 17.3631 20.8796C17.7159 21.1054 17.9806 21.4428 18.114 21.8364C18.2565 22.2383 18.3243 23.1837 18.3243 24.6763V32.199H22.0662V23.8467C22.0662 22.5684 22.0022 21.6259 21.8743 21.0202C21.7455 20.4117 21.5071 19.8596 21.1544 19.3553C20.8037 18.8559 20.2844 18.4444 19.5897 18.1239C18.8969 17.8014 18.1247 17.6388 17.2624 17.6388C15.5881 17.6388 14.1445 18.3526 12.9401 19.7706ZM27.6741 19.7706V11.959H23.9371V32.199H27.6741V25.0667C27.6741 23.8697 27.7884 22.9655 28.0132 22.3531C28.2409 21.7417 28.5975 21.2843 29.0848 20.9781C29.5693 20.6739 30.1254 20.5208 30.7445 20.5208C31.2861 20.5208 31.7386 20.6394 32.0952 20.8796C32.449 21.1047 32.7146 21.4422 32.848 21.8364C32.9904 22.2383 33.0612 23.1837 33.0612 24.6763V32.199H36.7992V23.8467C36.7992 22.5684 36.7352 21.6259 36.6064 21.0202C36.4834 20.4227 36.2385 19.8563 35.8865 19.3553C35.5377 18.8559 35.0183 18.4444 34.3265 18.1239C33.6328 17.8014 32.8548 17.6388 31.9954 17.6388C30.3221 17.6388 28.8794 18.3526 27.6741 19.7706Z" fill="white"/>
</g>
</svg>
