<svg width="32" height="44" viewBox="0 0 32 44" fill="none" xmlns="http://www.w3.org/2000/svg">
<g clip-path="url(#clip0_1781_10214)">
<path d="M22.6667 28.6667H25.3333C26.0406 28.6667 26.7189 28.3857 27.219 27.8856C27.719 27.3855 28 26.7072 28 26V20.6667C28 19.9594 27.719 19.2811 27.219 18.781C26.7189 18.281 26.0406 18 25.3333 18H6.66667C5.95942 18 5.28115 18.281 4.78105 18.781C4.28095 19.2811 4 19.9594 4 20.6667V26C4 26.7072 4.28095 27.3855 4.78105 27.8856C5.28115 28.3857 5.95942 28.6667 6.66667 28.6667H9.33333" stroke="#6E7070" stroke-width="1.5" stroke-linecap="round" stroke-linejoin="round"/>
<path d="M22.6654 18V12.6667C22.6654 11.9594 22.3844 11.2811 21.8843 10.781C21.3842 10.281 20.7059 10 19.9987 10H11.9987C11.2915 10 10.6132 10.281 10.1131 10.781C9.61298 11.2811 9.33203 11.9594 9.33203 12.6667V18" stroke="#6E7070" stroke-width="1.5" stroke-linecap="round" stroke-linejoin="round"/>
<path d="M9.33203 26.0007C9.33203 25.2934 9.61298 24.6151 10.1131 24.115C10.6132 23.6149 11.2915 23.334 11.9987 23.334H19.9987C20.7059 23.334 21.3842 23.6149 21.8843 24.115C22.3844 24.6151 22.6654 25.2934 22.6654 26.0007V31.334C22.6654 32.0412 22.3844 32.7195 21.8843 33.2196C21.3842 33.7197 20.7059 34.0007 19.9987 34.0007H11.9987C11.2915 34.0007 10.6132 33.7197 10.1131 33.2196C9.61298 32.7195 9.33203 32.0412 9.33203 31.334V26.0007Z" stroke="#6E7070" stroke-width="1.5" stroke-linecap="round" stroke-linejoin="round"/>
</g>
<defs>
<clipPath id="clip0_1781_10214">
<rect width="32" height="32" fill="white" transform="translate(0 6)"/>
</clipPath>
</defs>
</svg>
