<svg width="105" height="28" viewBox="0 0 105 28" fill="none" xmlns="http://www.w3.org/2000/svg">
<path d="M14.96 22H11.408V12.592H3.6V22H0.0480001V0.655998H3.6V9.456H11.408V0.655998H14.96V22ZM32.7768 22H28.8088L25.1927 13.936H22.5688V22H19.0168V0.655998H26.3767C28.2114 0.655998 29.7048 1.264 30.8568 2.48C32.0088 3.696 32.5848 5.28533 32.5848 7.248C32.5848 8.976 32.2008 10.352 31.4328 11.376C30.6648 12.3787 29.7368 13.0293 28.6488 13.328L32.7768 22ZM25.8648 10.8C26.8034 10.8 27.5501 10.48 28.1048 9.84C28.6808 9.2 28.9688 8.34667 28.9688 7.28C28.9688 6.21333 28.6808 5.36 28.1048 4.72C27.5501 4.08 26.8034 3.76 25.8648 3.76H22.5688V10.8H25.8648ZM40.0548 22.384C37.6441 22.384 35.7561 21.648 34.3908 20.176L35.8307 17.936C36.3214 18.4693 36.9401 18.928 37.6868 19.312C38.4548 19.6747 39.2228 19.856 39.9908 19.856C40.7801 19.856 41.3988 19.6747 41.8468 19.312C42.3161 18.9493 42.5508 18.4587 42.5508 17.84C42.5508 17.3067 42.2841 16.8587 41.7508 16.496C41.2388 16.1333 40.6094 15.824 39.8628 15.568C39.1161 15.312 38.3588 15.024 37.5908 14.704C36.8441 14.3627 36.2041 13.8507 35.6708 13.168C35.1588 12.464 34.9028 11.6 34.9028 10.576C34.9028 9.31733 35.3721 8.272 36.3108 7.44C37.2708 6.58667 38.5721 6.16 40.2148 6.16C42.2414 6.16 43.9374 6.82133 45.3028 8.144L43.9588 10.32C43.0628 9.232 41.8361 8.688 40.2788 8.688C39.5748 8.688 38.9988 8.85867 38.5508 9.2C38.1241 9.54133 37.9108 9.968 37.9108 10.48C37.9108 10.9067 38.1028 11.28 38.4868 11.6C38.8708 11.8987 39.3401 12.1333 39.8948 12.304C40.4708 12.4747 41.0894 12.7093 41.7508 13.008C42.4121 13.2853 43.0201 13.5947 43.5748 13.936C44.1508 14.2773 44.6308 14.7787 45.0148 15.44C45.3988 16.1013 45.5908 16.88 45.5908 17.776C45.5908 19.12 45.0788 20.2293 44.0548 21.104C43.0521 21.9573 41.7188 22.384 40.0548 22.384ZM59.7145 20.176C58.7118 21.648 57.3465 22.384 55.6185 22.384C53.8905 22.384 52.5678 21.5627 51.6505 19.92V27.888H48.4505V6.544H51.6505V8.592C52.0985 7.824 52.6745 7.22667 53.3785 6.8C54.0825 6.37333 54.8292 6.16 55.6185 6.16C57.3678 6.16 58.7438 6.88533 59.7465 8.336C60.7492 9.78667 61.2505 11.76 61.2505 14.256C61.2505 16.7307 60.7385 18.704 59.7145 20.176ZM54.6585 19.568C55.7252 19.568 56.5358 19.0773 57.0905 18.096C57.6665 17.0933 57.9545 15.8133 57.9545 14.256C57.9545 12.6987 57.6665 11.4293 57.0905 10.448C56.5358 9.46667 55.7252 8.976 54.6585 8.976C54.0612 8.976 53.4745 9.17867 52.8985 9.584C52.3438 9.98933 51.9278 10.4907 51.6505 11.088V17.424C51.9278 18.0213 52.3438 18.5333 52.8985 18.96C53.4745 19.3653 54.0612 19.568 54.6585 19.568ZM75.3685 22H72.2005V20.432C71.2618 21.7333 69.9072 22.384 68.1365 22.384C66.8138 22.384 65.6938 21.9253 64.7765 21.008C63.8592 20.0693 63.4005 18.8107 63.4005 17.232C63.4005 15.6533 63.8592 14.4267 64.7765 13.552C65.6938 12.656 66.8138 12.208 68.1365 12.208C69.9498 12.208 71.3045 12.8267 72.2005 14.064V11.824C72.2005 10.8853 71.9338 10.16 71.4005 9.648C70.8885 9.136 70.1525 8.88 69.1925 8.88C67.7845 8.88 66.5045 9.46667 65.3525 10.64L64.1045 8.4C65.5978 6.90667 67.4858 6.16 69.7685 6.16C71.4752 6.16 72.8298 6.59733 73.8325 7.472C74.8565 8.32533 75.3685 9.648 75.3685 11.44V22ZM69.2885 20.176C70.5685 20.176 71.5392 19.6107 72.2005 18.48V16.144C71.9018 15.6107 71.4858 15.1947 70.9525 14.896C70.4192 14.576 69.8645 14.416 69.2885 14.416C68.4778 14.416 67.8272 14.6827 67.3365 15.216C66.8458 15.7493 66.6005 16.4427 66.6005 17.296C66.6005 18.1493 66.8458 18.8427 67.3365 19.376C67.8272 19.9093 68.4778 20.176 69.2885 20.176ZM89.858 20.304C88.7487 21.6907 87.1807 22.384 85.154 22.384C83.1273 22.384 81.4847 21.6267 80.226 20.112C78.9887 18.576 78.37 16.624 78.37 14.256C78.37 11.888 78.9887 9.94667 80.226 8.432C81.4633 6.91733 83.106 6.16 85.154 6.16C87.1807 6.16 88.7487 6.85333 89.858 8.24L88.226 10.416C87.4793 9.456 86.562 8.976 85.474 8.976C84.3007 8.976 83.3727 9.47733 82.69 10.48C82.0073 11.4827 81.666 12.7413 81.666 14.256C81.666 15.792 82.0073 17.0613 82.69 18.064C83.3727 19.0667 84.3007 19.568 85.474 19.568C86.5407 19.568 87.458 19.088 88.226 18.128L89.858 20.304ZM98.5953 22.384C96.4833 22.384 94.7979 21.6373 93.5393 20.144C92.2806 18.6507 91.6513 16.688 91.6513 14.256C91.6513 11.952 92.2486 10.032 93.4433 8.496C94.6593 6.93867 96.2699 6.16 98.2753 6.16C100.302 6.16 101.881 6.928 103.011 8.464C104.142 10 104.707 11.9733 104.707 14.384V15.312H94.8833C94.9473 16.6347 95.3313 17.712 96.0353 18.544C96.7393 19.3547 97.6993 19.76 98.9153 19.76C100.302 19.76 101.465 19.2053 102.403 18.096L103.939 20.016C102.553 21.5947 100.771 22.384 98.5953 22.384ZM101.603 13.04C101.582 11.9093 101.294 10.9173 100.739 10.064C100.206 9.18933 99.3739 8.752 98.2433 8.752C97.1553 8.752 96.3339 9.18933 95.7793 10.064C95.2246 10.9387 94.9153 11.9307 94.8513 13.04H101.603Z" fill="#303233"/>
</svg>
